{"title":"Funny People (2009) DVDRip XviD-MAX","uid":5182403,"size":1467751839,"categoryP":"video","categoryS":"movies","magnet":"?xt=urn:btih:84945f616b7f2005a652d1eedf7914ea020d9dcb&amp;dn=Funny+People+%282009%29+DVDRip+XviD-MAX&amp;tr=udp%3A%2F%2Ftracker.openbittorrent.com%3A80&amp;tr=udp%3A%2F%2Fopen.demonii.com%3A1337&amp;tr=udp%3A%2F%2Ftracker.coppersurfer.tk%3A6969&amp;tr=udp%3A%2F%2Fexodus.desync.com%3A6969","seeders":12,"leechers":1,"uploader":"extremezone","files":-1,"time":1259311442,"description":"Funny People (2009) DVDRip XviD-MAX\n\nFormat                           : AVI\nFormat/Info                      : Audio Video Interleave\nFile size                        : 1.37 GiB\nDuration                         : 2h 32mn\nOverall bit rate                 : 1 283 Kbps\nWriting application              : VirtualDubMod 1.5.10.2 (build 2542/release)\nWriting library                  : VirtualDubMod build 2542/release\nOriginal source form             : MAX TORRENTZ\nCopyright                        : SIGISMUNT\nVideo\nID                               : 0\nFormat                           : MPEG-4 Visual\nFormat profile                   : AdvancedSimple@L5\nFormat settings, BVOP            : Yes\nFormat settings, QPel            : No\nFormat settings, GMC             : No warppoints\nFormat settings, Matrix          : Default (MPEG)\nMuxing mode                      : Packed bitstream\nCodec ID                         : XVID\nCodec ID/Hint                    : XviD\nDuration                         : 2h 32mn\nBit rate                         : 826 Kbps\nWidth                            : 624 pixels\nHeight                           : 336 pixels\nDisplay aspect ratio             : 1.857\nFrame rate                       : 23.976 fps\nResolution                       : 24 bits\nColorimetry                      : 4:2:0\nScan type                        : Progressive\nBits/(Pixel*Frame)               : 0.164\nStream size                      : 901 MiB (64%)\nWriting library                  : XviD 1.2.1 (UTC 2008-12-04)\n\nAudio\nID                               : 1\nFormat                           : AC-3\nFormat/Info                      : Audio Coding 3\nCodec ID                         : 2000\nDuration                         : 2h 32mn\nBit rate mode                    : Constant\nBit rate                         : 448 Kbps\nChannel(s)                       : 6 channels\nChannel positions                : Front: L C R, Surround: L R, LFE\nSampling rate                    : 48.0 KHz\nStream size                      : 489 MiB (35%)\nAlignment                        : Split accross interleaves\nInterleave, duration             : 42 ms (1.00 video frame)\nInterleave, preload duration     : 500 ms  &lt;a href=&quot;\nhttp://www.imdb.com/title/tt1201167/&quot; rel=&quot;nofollow&quot; target=&quot;_NEW&quot;&gt;\nhttp://www.imdb.com/title/tt1201167/&lt;/a&gt;\n\nScreens:  &lt;a href=&quot;\nhttp://www.postimg.com/image/8000/7916.jpg&quot; rel=&quot;nofollow&quot; target=&quot;_NEW&quot;&gt;\nhttp://www.postimg.com/image/8000/7916.jpg&lt;/a&gt;  &lt;a href=&quot;\nhttp://www.postimg.com/image/8000/7917.jpg&quot; rel=&quot;nofollow&quot; target=&quot;_NEW&quot;&gt;\nhttp://www.postimg.com/image/8000/7917.jpg&lt;/a&gt;  &lt;a href=&quot;\nhttp://www.postimg.com/image/8000/7918.jpg&quot; rel=&quot;nofollow&quot; target=&quot;_NEW&quot;&gt;\nhttp://www.postimg.com/image/8000/7918.jpg&lt;/a&gt;  &lt;a href=&quot;\nhttp://www.postimg.com/image/8000/7919.jpg&quot; rel=&quot;nofollow&quot; target=&quot;_NEW&quot;&gt;\nhttp://www.postimg.com/image/8000/7919.jpg&lt;/a&gt;\n\nScreenCaps:  &lt;a href=&quot;\nhttp://www.postimg.com/image/8000/7921.jpg&quot; rel=&quot;nofollow&quot; target=&quot;_NEW&quot;&gt;\nhttp://www.postimg.com/image/8000/7921.jpg&lt;/a&gt;\n\n\nFunny People (2009) DVDRip XviD-MAX Torrent Free Download\n &lt;a href=&quot;\nhttp://thepiratebay.se/user/extremezone/0/7&quot; rel=&quot;nofollow&quot; target=&quot;_NEW&quot;&gt;\nhttp://thepiratebay.se/user/extremezone/0/7&lt;/a&gt;","torrent":{"xt":"urn:btih:84945f616b7f2005a652d1eedf7914ea020d9dcb","amp;dn":"Funny+People+%282009%29+DVDRip+XviD-MAX","amp;tr":["udp%3A%2F%2Ftracker.openbittorrent.com%3A80","udp%3A%2F%2Fopen.demonii.com%3A1337","udp%3A%2F%2Ftracker.coppersurfer.tk%3A6969","udp%3A%2F%2Fexodus.desync.com%3A6969"],"infoHash":"84945f616b7f2005a652d1eedf7914ea020d9dcb","infoHashBuffer":{"type":"Buffer","data":[132,148,95,97,107,127,32,5,166,82,209,238,223,121,20,234,2,13,157,203]},"announce":[],"urlList":[]}}